<svg width="16" height="16" viewBox="0 0 16 16" fill="none" xmlns="http://www.w3.org/2000/svg">
<path d="M13.8743 1.58607C14.2492 1.96113 14.4599 2.46974 14.4599 3.00007C14.4599 3.5304 14.2492 4.03902 13.8743 4.41407L5.07308 13.2153C4.75273 13.5354 4.35145 13.7625 3.91208 13.8723L1.62108 14.4453C1.53727 14.4662 1.44947 14.4651 1.36624 14.4419C1.28301 14.4188 1.20719 14.3746 1.14616 14.3134C1.08513 14.2523 1.04097 14.1764 1.018 14.0931C0.995033 14.0099 0.994026 13.9221 1.01508 13.8383L1.58708 11.5483C1.697 11.1085 1.92445 10.7068 2.24508 10.3863L11.0453 1.58607C11.231 1.40027 11.4515 1.25288 11.6942 1.15232C11.9369 1.05176 12.1971 1 12.4598 1C12.7225 1 12.9826 1.05176 13.2253 1.15232C13.4681 1.25288 13.6886 1.40027 13.8743 1.58607ZM10.3383 3.70607L2.95308 11.0943C2.76102 11.2866 2.62484 11.5275 2.55908 11.7913L2.18808 13.2743L3.67008 12.9033C3.93393 12.8372 4.17486 12.7007 4.36708 12.5083L11.7533 5.12207L10.3393 3.70807L10.3383 3.70607ZM11.7533 2.29307L11.0453 3.00007L12.4593 4.41407L13.1673 3.70707C13.3495 3.51847 13.4502 3.26587 13.448 3.00367C13.4457 2.74147 13.3405 2.49066 13.1551 2.30525C12.9697 2.11985 12.7189 2.01468 12.4567 2.0124C12.1945 2.01012 11.9419 2.11091 11.7533 2.29307Z" fill="white"/>
</svg>
